# xmcd
#
# Track frame offsets:
#       150
#       18378
#       37539
#       53523
#       76296
#       96068
#       113417
#       130844
#       149793
#       170386
#       187115
#       204024
#       222025
#
# Disc length: 3103 seconds
#
# Revision: 1
# Processed by: cddbd v1.5.1PL0 Copyright (c) Steve Scherf et al.
# Submitted via: WaveLab 4.01
#
DISCID=9f0c1d0d
DTITLE=Hue and Cry - The River Session 1987
DYEAR=2005
DGENRE=
TTITLE0=Love Is The Master
TTITLE1=Just One Word
TTITLE2=History City
TTITLE3=Seen It All
TTITLE4=Labour Of Love
TTITLE5=Widescreen
TTITLE6=Dangerous Work
TTITLE7=Mad To Nuts
TTITLE8=Kiss
TTITLE9=Goodbye To Me
TTITLE10=I Refuse
TTITLE11=Strength To Strength
TTITLE12=Labour Of Love
EXTD=
EXTT0=
EXTT1=
EXTT2=
EXTT3=
EXTT4=
EXTT5=
EXTT6=
EXTT7=
EXTT8=
EXTT9=
EXTT10=
EXTT11=
EXTT12=
PLAYORDER=
